Simulation
nRows=47
nColumns=15
endheader
time  TH_x TH_y TH_z SC_y  SC_z  SC_x  AC_y  AC_z  AC_x  GH_y  GH_z  GH_yy  EL_x  PS_y
1.9499999999999993  0.000000  0.000000  0.000000  -29.339955437353094  12.387834750459284  23.74673022789042  60.9864000548508  11.851324353929355  3.093327348795399  48.27320935926473  57.108994777347384  -44.73493122966097  22.27030587453275  0.000000
1.9889999999999992  0.000000  0.000000  0.000000  -28.95327315236592  12.006371491846796  23.34183684162649  60.80685875797929  11.511257471796842  2.2213990341886314  48.63240823544141  56.23763716883057  -44.23449408266986  22.479963578641318  0.000000
2.027999999999999  0.000000  0.000000  0.000000  -28.517120629191687  11.572049085926702  22.897204380297403  60.61749899672119  11.132302949351521  1.2775848912789447  49.03553919013958  55.26557700513147  -43.78649454006184  22.68189733469536  0.000000
2.0669999999999993  0.000000  0.000000  0.000000  -28.038281196787352  11.090097004840533  22.41091902303708  60.41944360520031  10.721046031015964  0.28181385024140854  49.48127884227879  54.20709990636195  -43.39551902414607  22.861926575863354  0.000000
2.1059999999999994  0.000000  0.000000  0.000000  -27.527803725173413  10.567197358502545  21.879899367356064  60.21120051441755  10.286791887069363  -0.7460651415850003  49.95274308342719  53.07833892759201  -43.02214597033773  23.008973808908653  0.000000
2.144999999999999  0.000000  0.000000  0.000000  -26.999136232298646  10.009851893097197  21.29873887552321  59.99193611344397  9.840826752043313  -1.785842821359887  50.42077657551907  51.89689193155665  -42.603075371980076  23.116278142083083  0.000000
2.1839999999999993  0.000000  0.000000  0.000000  -26.468740758154716  9.423091138283926  20.65778442675925  59.76501910118486  9.394348994621526  -2.8159080338643907  50.851935632148944  50.68176502470183  -42.081962798333926  23.183862893318306  0.000000
2.2229999999999994  0.000000  0.000000  0.000000  -25.958198916367905  8.8103736408594  19.941065495689976  59.5395658009566  8.956847666258819  -3.811580911423035  51.2147426426604  49.45285699563616  -41.4289033641163  23.220390358236745  0.000000
2.261999999999999  0.000000  0.000000  0.000000  -25.493953435991905  8.17496778529842  19.12678028869819  59.32776916609874  8.535860299048863  -4.743899339619218  51.48080673720262  48.22761515011673  -40.636478781813366  23.24187994415838  0.000000
2.3009999999999993  0.000000  0.000000  0.000000  -25.10283434987452  7.52178460130547  18.19125907731744  59.13939729476374  8.13890002702908  -5.581169848825244  51.62326158065636  47.01574943644652  -39.69889000430121  23.268005783562586  0.000000
2.339999999999999  0.000000  0.000000  0.000000  -24.804761214378033  6.858565700684471  17.11468060330194  58.975996144113495  7.775953588476724  -6.2927902393691655  51.615482974347834  45.81432322457812  -38.591453474355795  23.31906759645154  0.000000
2.378999999999999  0.000000  0.000000  0.000000  -24.607300423200268  6.195548417266938  15.886183684364362  58.82900046444911  7.460109287451216  -6.854664136751466  51.43148507261685  44.60802118405444  -37.26591727765561  23.414382520894605  0.000000
2.4179999999999993  0.000000  0.000000  0.000000  -24.505842401780214  5.544007553518963  14.506358415063252  58.68315209652561  7.2051469419822896  -7.253066444973257  51.04599606724023  43.37485802318211  -35.66297256028936  23.57132514957206  0.000000
2.456999999999999  0.000000  0.000000  0.000000  -24.48858445326516  4.914277441781696  12.986819574814193  58.52269561516337  7.021653361637812  -7.486194827207248  50.43440914325284  42.09514935283186  -33.73225089909583  23.804394617191956  0.000000
2.495999999999999  0.000000  0.000000  0.000000  -24.542563380820308  4.313976627322657  11.348299743031776  58.335981546243424  6.914718514386028  -7.5626619250836296  49.574721310448375  40.757793836298106  -31.44845287582415  24.12368775953932  0.000000
2.5349999999999993  0.000000  0.000000  0.000000  -24.65695971168491  3.747622633736884  9.617981134304914  58.117936748137254  6.88333915988779  -7.498337847461491  48.450483712825  39.362723182858765  -28.817801588578032  24.53162136839288  0.000000
2.573999999999999  0.000000  0.000000  0.000000  -24.823500013697792  3.217166467790495  7.8271086824159966  57.86997237371656  6.9212140123719195  -7.312703363813846  47.05583520308608  37.91896515746421  -25.87780027269493  25.018061020122  0.000000
2.612999999999999  0.000000  0.000000  0.000000  -25.03563279099669  2.7229037926687703  6.008689403331643  57.598661464508204  7.0181425947803335  -7.026706254406644  45.401214741899594  36.44079356334994  -22.69440849329773  25.55668380730722  0.000000
2.6519999999999992  0.000000  0.000000  0.000000  -25.28825948332443  2.2645175064573917  4.195933927616101  57.31240993061331  7.161858644346644  -6.662132986746325  43.51800473653941  34.94249646352202  -19.355895729219956  26.106752688211877  0.000000
2.690999999999999  0.000000  0.000000  0.000000  -25.57765625300262  1.8424221702179933  2.421375040949614  57.017399635401  7.3405362668440155  -6.242668225565051  41.45917664993442  33.43361260405161  -15.962124239041735  26.621416150028054  0.000000
2.729999999999999  0.000000  0.000000  0.000000  -25.900677070733746  1.4590578678031019  0.7168356855923016  56.713862084054306  7.544853106201182  -5.794777752006585  39.29502889274706  31.91587149568713  -12.610454535481011  27.05837433853114  0.000000
2.768999999999999  0.000000  0.000000  0.000000  -26.253186164619652  1.119115640998925  -0.8867565836766811  56.39556314631408  7.7688517205630925  -5.347699922677983  37.105500301699934  30.383533915744096  -9.384984743959862  27.387480097229204  0.000000
2.807999999999999  0.000000  0.000000  0.000000  -26.62892060599395  0.8286368812551953  -2.3599903140735923  56.0523048176363  8.008577918601729  -4.931193305617312  34.97156025697801  28.826478480418753  -6.352431272759754  27.593118250171884  0.000000
2.846999999999999  0.000000  0.000000  0.000000  -27.018438003321975  0.5930244848456112  -3.676286974442159  55.67508813988513  8.259975100568917  -4.572411980022361  32.96662507347373  27.23465911731931  -3.5630464257363297  27.67189392233593  0.000000
2.885999999999999  0.000000  0.000000  0.000000  -27.407949035487157  0.4150499358212743  -4.812930764521322  55.259874108418  8.516769538544859  -4.292309523102369  31.14443833454613  25.60164206343639  -1.046603334914129  27.62993775149408  0.000000
2.924999999999999  0.000000  0.000000  0.000000  -27.780547766574916  0.29498821329157837  -5.752253587920866  54.81094818284083  8.76937356913455  -4.10402495613177  29.52664123847175  23.927928287356146  1.1934663731321038  27.482986507932374  0.000000
2.963999999999999  0.000000  0.000000  0.000000  -28.119120240202175  0.2301223303841262  -6.483735757576545  54.34207027554887  9.005229737702646  -4.0119392418707625  28.09213434562923  22.224203643081562  3.1863242036722776  27.25696945562561  0.000000
3.002999999999999  0.000000  0.000000  0.000000  -28.408983292924052  0.21306436193420927  -7.005350401396978  53.875919324065634  9.210495768157639  -4.011710944581084  26.77506440792731  20.511931528092926  4.992347951139815  26.98593672411975  0.000000
3.041999999999999  0.000000  0.000000  0.000000  -28.64128618679239  0.23192958955060441  -7.325688266356242  53.44139236109239  9.372381232850303  -4.090901619555785  25.48121299538786  18.82217676755706  6.685606684950458  26.705055562569942  0.000000
3.080999999999999  0.000000  0.000000  0.000000  -28.816308405805117  0.2730299536019799  -7.4642113834707065  53.06806453124808  9.481077401889252  -4.230239337653597  24.126207509397094  17.191166291136447  8.318680667870465  26.44026389185708  0.000000
3.1199999999999988  0.000000  0.000000  0.000000  -28.94443746579433  0.32516311556482225  -7.44671734984156  52.77832219558312  9.5295068471367  -4.40796242266397  22.682993596190453  15.654209917713649  9.881974618387964  26.202728042853323  0.000000
3.158999999999999  0.000000  0.000000  0.000000  -29.044140237106454  0.3829409240517504  -7.300890114977447  52.5805314950246  9.51536580296594  -4.604778511839289  21.217825848301242  14.23917420188623  11.275544076192979  25.99239126113282  0.000000
3.197999999999999  0.000000  0.000000  0.000000  -29.136257914271674  0.4464191220142169  -7.054804573107847  52.467477833522246  9.444248620294907  -4.806252097978702  19.883370409674328  12.96289968512383  12.32192036114024  25.80703432045885  0.000000
3.2369999999999988  0.000000  0.000000  0.000000  -29.23604948825398  0.5175737973843177  -6.736392640513289  52.422439333143  9.32996224492144  -5.002874985151467  18.865200884808026  11.832475907486355  12.823161579916814  25.64940485132759  0.000000
3.275999999999999  0.000000  0.000000  0.000000  -29.346746416594478  0.5961406302720565  -6.3737456509463  52.42825441320289  9.191409165257737  -5.186969398353765  18.307685177339362  10.85005583668028  12.63622072823876  25.526857043324586  0.000000
3.3149999999999986  0.000000  0.000000  0.000000  -29.46006750013406  0.6779159548203849  -5.994851256576367  52.47426901724685  9.04766733095532  -5.349536217678286  18.26711049920554  10.017244950745905  11.71858759961686  25.447051468094745  0.000000
3.3539999999999988  0.000000  0.000000  0.000000  -29.563956340547456  0.7558114546313225  -5.626033199422406  52.55716296942447  8.913682217611047  -5.479846961094229  18.712606703321594  9.336579947393004  10.125128169543748  25.414813067282086  0.000000
3.392999999999999  0.000000  0.000000  0.000000  -29.6512819468547  0.8228984368977946  -5.290645135002229  52.67625894102691  8.799362597817785  -5.5676259725921105  19.56771699297002  8.809610568654703  7.96539154217491  25.432424221041504  0.000000
3.4319999999999986  0.000000  0.000000  0.000000  -29.724030892054795  0.8764332058410812  -5.007271983538426  52.82773036126056  8.710122169950324  -5.605303249663034  20.750704591287704  8.433977040746583  5.3646174271799385  25.503360827990967  0.000000
3.4709999999999988  0.000000  0.000000  0.000000  -29.79057266602148  0.9181145682829124  -4.787414481222185  53.002924702929676  8.64802963970602  -5.590913488025047  22.18905582373541  8.201862857925779  2.4517903774568235  25.63047714884826  0.000000
3.509999999999999  0.000000  0.000000  0.000000  -29.857350101717632  0.9515157883825239  -4.635893125467297  53.18986179342213  8.614880068210429  -5.528201060103148  23.80345452111839  8.099517387691874  -0.6234126955565381  25.811278054319597  0.000000
3.5489999999999986  0.000000  0.000000  0.000000  -29.922806334968236  0.9813255287478556  -4.550219603102064  53.378468003644926  8.612060451416205  -5.423209848456017  25.47949986439775  8.107431038374278  -3.663240693727241  26.03553605984297  0.000000
3.5879999999999987  0.000000  0.000000  0.000000  -29.97604349239572  1.0114789244479374  -4.518097995660784  53.56362938030443  8.638754340349688  -5.284873662513267  27.078915982583766  8.200525090242571  -6.444233069398096  26.28522625943602  0.000000
3.626999999999999  0.000000  0.000000  0.000000  -30.002959092371793  1.0428055899735549  -4.518919855080218  53.74631607657689  8.692563169975958  -5.125394393024046  28.471088689541254  8.349107572714358  -8.76529265764621  26.53792680135131  0.000000
3.6659999999999986  0.000000  0.000000  0.000000  -29.997552186476955  1.0721863195840018  -4.528149242786014  53.92885852706171  8.769566719984244  -4.962255498804231  29.60012894777085  8.521270532435596  -10.538278697395764  26.774540200537093  0.000000
3.7049999999999987  0.000000  0.000000  0.000000  -29.97085737267482  1.0905414242618723  -4.524123301304952  54.11275031319497  8.864981425798256  -4.816568071839901  30.490938671545436  8.686297189126593  -11.800766215260762  26.983471434105873  0.000000
3.743999999999999  0.000000  0.000000  0.000000  -29.944469452302464  1.0849706381667048  -4.494645590587456  54.29492331795331  8.972015792597322  -4.710898203941749  31.23709599569935  8.813904171015022  -12.699853363310377  27.161505164110412  0.000000
